<mxfile host="Electron" agent="Mozilla/5.0 (Windows NT 10.0; Win64; x64) AppleWebKit/537.36 (KHTML, like Gecko) draw.io/26.0.7 Chrome/128.0.6613.186 Electron/32.2.5 Safari/537.36" version="26.0.7">
  <diagram name="Page-1" id="7QGu9BSBRAx4xvjGfS3A">
    <mxGraphModel dx="4198" dy="1672" grid="1" gridSize="10" guides="1" tooltips="1" connect="1" arrows="1" fold="1" page="1" pageScale="1" pageWidth="850" pageHeight="1100" math="0" shadow="0">
      <root>
        <mxCell id="0" />
        <mxCell id="1" parent="0" />
        <mxCell id="v5iqGjtKW1iKM7t-HXTD-3" value="" style="edgeStyle=orthogonalEdgeStyle;rounded=0;orthogonalLoop=1;jettySize=auto;html=1;" parent="1" source="v5iqGjtKW1iKM7t-HXTD-1" target="v5iqGjtKW1iKM7t-HXTD-2" edge="1">
          <mxGeometry relative="1" as="geometry" />
        </mxCell>
        <mxCell id="v5iqGjtKW1iKM7t-HXTD-1" value="Start Game()" style="strokeWidth=2;html=1;shape=mxgraph.flowchart.terminator;whiteSpace=wrap;" parent="1" vertex="1">
          <mxGeometry x="80" y="20" width="100" height="60" as="geometry" />
        </mxCell>
        <mxCell id="v5iqGjtKW1iKM7t-HXTD-7" value="" style="edgeStyle=orthogonalEdgeStyle;rounded=0;orthogonalLoop=1;jettySize=auto;html=1;" parent="1" source="v5iqGjtKW1iKM7t-HXTD-2" target="v5iqGjtKW1iKM7t-HXTD-6" edge="1">
          <mxGeometry relative="1" as="geometry" />
        </mxCell>
        <mxCell id="v5iqGjtKW1iKM7t-HXTD-2" value="Declarations&lt;div&gt;string totalQuestions = &quot;5 Questions&quot;&lt;/div&gt;&lt;div&gt;string playerName&lt;/div&gt;&lt;div&gt;&lt;br&gt;&lt;/div&gt;" style="whiteSpace=wrap;html=1;strokeWidth=2;" parent="1" vertex="1">
          <mxGeometry x="70" y="120" width="120" height="100" as="geometry" />
        </mxCell>
        <mxCell id="v5iqGjtKW1iKM7t-HXTD-9" value="" style="edgeStyle=orthogonalEdgeStyle;rounded=0;orthogonalLoop=1;jettySize=auto;html=1;" parent="1" source="v5iqGjtKW1iKM7t-HXTD-6" target="v5iqGjtKW1iKM7t-HXTD-8" edge="1">
          <mxGeometry relative="1" as="geometry" />
        </mxCell>
        <mxCell id="v5iqGjtKW1iKM7t-HXTD-6" value="output totalQuestions" style="shape=parallelogram;perimeter=parallelogramPerimeter;whiteSpace=wrap;html=1;fixedSize=1;strokeWidth=2;" parent="1" vertex="1">
          <mxGeometry x="50" y="260" width="160" height="90" as="geometry" />
        </mxCell>
        <mxCell id="v5iqGjtKW1iKM7t-HXTD-11" value="" style="edgeStyle=orthogonalEdgeStyle;rounded=0;orthogonalLoop=1;jettySize=auto;html=1;" parent="1" source="v5iqGjtKW1iKM7t-HXTD-8" target="v5iqGjtKW1iKM7t-HXTD-10" edge="1">
          <mxGeometry relative="1" as="geometry" />
        </mxCell>
        <mxCell id="v5iqGjtKW1iKM7t-HXTD-8" value="input playerName" style="shape=parallelogram;perimeter=parallelogramPerimeter;whiteSpace=wrap;html=1;fixedSize=1;strokeWidth=2;" parent="1" vertex="1">
          <mxGeometry x="60" y="380" width="140" height="80" as="geometry" />
        </mxCell>
        <mxCell id="v5iqGjtKW1iKM7t-HXTD-13" value="" style="edgeStyle=orthogonalEdgeStyle;rounded=0;orthogonalLoop=1;jettySize=auto;html=1;" parent="1" source="v5iqGjtKW1iKM7t-HXTD-10" target="v5iqGjtKW1iKM7t-HXTD-12" edge="1">
          <mxGeometry relative="1" as="geometry" />
        </mxCell>
        <mxCell id="v5iqGjtKW1iKM7t-HXTD-10" value="output playerName +&quot;You have 1 minute to complete each questions.&quot;" style="shape=parallelogram;perimeter=parallelogramPerimeter;whiteSpace=wrap;html=1;fixedSize=1;strokeWidth=2;" parent="1" vertex="1">
          <mxGeometry x="-5" y="500" width="270" height="80" as="geometry" />
        </mxCell>
        <mxCell id="v5iqGjtKW1iKM7t-HXTD-15" value="" style="edgeStyle=orthogonalEdgeStyle;rounded=0;orthogonalLoop=1;jettySize=auto;html=1;" parent="1" source="v5iqGjtKW1iKM7t-HXTD-12" target="v5iqGjtKW1iKM7t-HXTD-14" edge="1">
          <mxGeometry relative="1" as="geometry" />
        </mxCell>
        <mxCell id="v5iqGjtKW1iKM7t-HXTD-183" style="edgeStyle=orthogonalEdgeStyle;rounded=0;orthogonalLoop=1;jettySize=auto;html=1;exitX=1;exitY=0.5;exitDx=0;exitDy=0;entryX=0;entryY=0.5;entryDx=0;entryDy=0;entryPerimeter=0;" parent="1" source="v5iqGjtKW1iKM7t-HXTD-12" target="v5iqGjtKW1iKM7t-HXTD-26" edge="1">
          <mxGeometry relative="1" as="geometry">
            <mxPoint x="350" y="350" as="targetPoint" />
            <Array as="points">
              <mxPoint x="351" y="640" />
              <mxPoint x="351" y="340" />
            </Array>
          </mxGeometry>
        </mxCell>
        <mxCell id="v5iqGjtKW1iKM7t-HXTD-12" value="quesOne ()" style="shape=process;whiteSpace=wrap;html=1;backgroundOutline=1;strokeWidth=2;" parent="1" vertex="1">
          <mxGeometry x="70" y="610" width="120" height="60" as="geometry" />
        </mxCell>
        <mxCell id="v5iqGjtKW1iKM7t-HXTD-17" value="" style="edgeStyle=orthogonalEdgeStyle;rounded=0;orthogonalLoop=1;jettySize=auto;html=1;" parent="1" source="v5iqGjtKW1iKM7t-HXTD-14" target="v5iqGjtKW1iKM7t-HXTD-16" edge="1">
          <mxGeometry relative="1" as="geometry" />
        </mxCell>
        <mxCell id="v5iqGjtKW1iKM7t-HXTD-185" style="edgeStyle=orthogonalEdgeStyle;rounded=0;orthogonalLoop=1;jettySize=auto;html=1;exitX=1;exitY=0.5;exitDx=0;exitDy=0;fillColor=#dae8fc;strokeColor=#6c8ebf;" parent="1" source="v5iqGjtKW1iKM7t-HXTD-14" edge="1">
          <mxGeometry relative="1" as="geometry">
            <mxPoint x="910" y="280" as="targetPoint" />
            <Array as="points">
              <mxPoint x="301" y="730" />
            </Array>
          </mxGeometry>
        </mxCell>
        <mxCell id="v5iqGjtKW1iKM7t-HXTD-14" value="quesTwo()" style="shape=process;whiteSpace=wrap;html=1;backgroundOutline=1;strokeWidth=2;" parent="1" vertex="1">
          <mxGeometry x="70" y="700" width="120" height="60" as="geometry" />
        </mxCell>
        <mxCell id="v5iqGjtKW1iKM7t-HXTD-19" value="" style="edgeStyle=orthogonalEdgeStyle;rounded=0;orthogonalLoop=1;jettySize=auto;html=1;" parent="1" source="v5iqGjtKW1iKM7t-HXTD-16" target="v5iqGjtKW1iKM7t-HXTD-18" edge="1">
          <mxGeometry relative="1" as="geometry" />
        </mxCell>
        <mxCell id="v5iqGjtKW1iKM7t-HXTD-187" style="edgeStyle=orthogonalEdgeStyle;rounded=0;orthogonalLoop=1;jettySize=auto;html=1;exitX=1;exitY=0.5;exitDx=0;exitDy=0;fillColor=#f8cecc;strokeColor=#b85450;" parent="1" target="v5iqGjtKW1iKM7t-HXTD-73" edge="1">
          <mxGeometry relative="1" as="geometry">
            <mxPoint x="1280" y="310" as="targetPoint" />
            <mxPoint x="190" y="804" as="sourcePoint" />
            <Array as="points">
              <mxPoint x="280" y="804" />
              <mxPoint x="280" y="805" />
              <mxPoint x="360" y="805" />
              <mxPoint x="360" y="234" />
              <mxPoint x="1280" y="234" />
              <mxPoint x="1280" y="300" />
            </Array>
          </mxGeometry>
        </mxCell>
        <mxCell id="v5iqGjtKW1iKM7t-HXTD-16" value="quesThree()" style="shape=process;whiteSpace=wrap;html=1;backgroundOutline=1;strokeWidth=2;" parent="1" vertex="1">
          <mxGeometry x="70" y="790" width="120" height="60" as="geometry" />
        </mxCell>
        <mxCell id="v5iqGjtKW1iKM7t-HXTD-21" value="" style="edgeStyle=orthogonalEdgeStyle;rounded=0;orthogonalLoop=1;jettySize=auto;html=1;" parent="1" source="v5iqGjtKW1iKM7t-HXTD-18" target="v5iqGjtKW1iKM7t-HXTD-20" edge="1">
          <mxGeometry relative="1" as="geometry" />
        </mxCell>
        <mxCell id="v5iqGjtKW1iKM7t-HXTD-189" style="edgeStyle=orthogonalEdgeStyle;rounded=0;orthogonalLoop=1;jettySize=auto;html=1;exitX=1;exitY=0.25;exitDx=0;exitDy=0;fillColor=#d5e8d4;strokeColor=#82b366;entryX=0.44;entryY=-0.05;entryDx=0;entryDy=0;entryPerimeter=0;" parent="1" source="v5iqGjtKW1iKM7t-HXTD-18" target="v5iqGjtKW1iKM7t-HXTD-95" edge="1">
          <mxGeometry relative="1" as="geometry">
            <mxPoint x="1756" y="170" as="targetPoint" />
            <Array as="points">
              <mxPoint x="285" y="895" />
              <mxPoint x="285" y="896" />
              <mxPoint x="370" y="896" />
              <mxPoint x="370" y="170" />
              <mxPoint x="1769" y="170" />
            </Array>
          </mxGeometry>
        </mxCell>
        <mxCell id="v5iqGjtKW1iKM7t-HXTD-18" value="quesFour()" style="shape=process;whiteSpace=wrap;html=1;backgroundOutline=1;strokeWidth=2;" parent="1" vertex="1">
          <mxGeometry x="70" y="890" width="120" height="60" as="geometry" />
        </mxCell>
        <mxCell id="v5iqGjtKW1iKM7t-HXTD-23" value="" style="edgeStyle=orthogonalEdgeStyle;rounded=0;orthogonalLoop=1;jettySize=auto;html=1;" parent="1" source="v5iqGjtKW1iKM7t-HXTD-20" target="v5iqGjtKW1iKM7t-HXTD-22" edge="1">
          <mxGeometry relative="1" as="geometry" />
        </mxCell>
        <mxCell id="v5iqGjtKW1iKM7t-HXTD-191" style="edgeStyle=orthogonalEdgeStyle;rounded=0;orthogonalLoop=1;jettySize=auto;html=1;exitX=1;exitY=0.5;exitDx=0;exitDy=0;fillColor=#e1d5e7;strokeColor=#9673a6;" parent="1" source="v5iqGjtKW1iKM7t-HXTD-20" target="v5iqGjtKW1iKM7t-HXTD-117" edge="1">
          <mxGeometry relative="1" as="geometry">
            <mxPoint x="2102" y="140" as="targetPoint" />
            <Array as="points">
              <mxPoint x="271" y="990" />
              <mxPoint x="271" y="140" />
              <mxPoint x="2175" y="140" />
            </Array>
          </mxGeometry>
        </mxCell>
        <mxCell id="v5iqGjtKW1iKM7t-HXTD-20" value="quesFive()" style="shape=process;whiteSpace=wrap;html=1;backgroundOutline=1;strokeWidth=2;" parent="1" vertex="1">
          <mxGeometry x="70" y="1000" width="120" height="60" as="geometry" />
        </mxCell>
        <mxCell id="v5iqGjtKW1iKM7t-HXTD-25" value="" style="edgeStyle=orthogonalEdgeStyle;rounded=0;orthogonalLoop=1;jettySize=auto;html=1;" parent="1" source="v5iqGjtKW1iKM7t-HXTD-22" target="v5iqGjtKW1iKM7t-HXTD-24" edge="1">
          <mxGeometry relative="1" as="geometry" />
        </mxCell>
        <mxCell id="v5iqGjtKW1iKM7t-HXTD-22" value="output &quot;Congratulations&quot; + playerName &quot;you have finished the Game.&quot;" style="shape=parallelogram;perimeter=parallelogramPerimeter;whiteSpace=wrap;html=1;fixedSize=1;strokeWidth=2;" parent="1" vertex="1">
          <mxGeometry x="-20" y="1250" width="300" height="90" as="geometry" />
        </mxCell>
        <mxCell id="v5iqGjtKW1iKM7t-HXTD-24" value="stop" style="strokeWidth=2;html=1;shape=mxgraph.flowchart.terminator;whiteSpace=wrap;" parent="1" vertex="1">
          <mxGeometry x="80" y="1430" width="100" height="60" as="geometry" />
        </mxCell>
        <mxCell id="v5iqGjtKW1iKM7t-HXTD-30" value="" style="edgeStyle=orthogonalEdgeStyle;rounded=0;orthogonalLoop=1;jettySize=auto;html=1;" parent="1" source="v5iqGjtKW1iKM7t-HXTD-26" target="v5iqGjtKW1iKM7t-HXTD-29" edge="1">
          <mxGeometry relative="1" as="geometry" />
        </mxCell>
        <mxCell id="v5iqGjtKW1iKM7t-HXTD-26" value="start quesOne()" style="strokeWidth=2;html=1;shape=mxgraph.flowchart.terminator;whiteSpace=wrap;" parent="1" vertex="1">
          <mxGeometry x="450" y="310" width="100" height="60" as="geometry" />
        </mxCell>
        <mxCell id="v5iqGjtKW1iKM7t-HXTD-32" value="" style="edgeStyle=orthogonalEdgeStyle;rounded=0;orthogonalLoop=1;jettySize=auto;html=1;" parent="1" source="v5iqGjtKW1iKM7t-HXTD-29" target="v5iqGjtKW1iKM7t-HXTD-31" edge="1">
          <mxGeometry relative="1" as="geometry" />
        </mxCell>
        <mxCell id="v5iqGjtKW1iKM7t-HXTD-29" value="Declarations&lt;div&gt;string questionOne&lt;/div&gt;&lt;div&gt;string answerAsQues&lt;/div&gt;&lt;div&gt;string playerAnswer&lt;/div&gt;" style="whiteSpace=wrap;html=1;strokeWidth=2;" parent="1" vertex="1">
          <mxGeometry x="440" y="390" width="120" height="60" as="geometry" />
        </mxCell>
        <mxCell id="v5iqGjtKW1iKM7t-HXTD-34" value="" style="edgeStyle=orthogonalEdgeStyle;rounded=0;orthogonalLoop=1;jettySize=auto;html=1;" parent="1" source="v5iqGjtKW1iKM7t-HXTD-31" target="v5iqGjtKW1iKM7t-HXTD-33" edge="1">
          <mxGeometry relative="1" as="geometry" />
        </mxCell>
        <mxCell id="v5iqGjtKW1iKM7t-HXTD-31" value="countDown()" style="shape=process;whiteSpace=wrap;html=1;backgroundOutline=1;strokeWidth=2;" parent="1" vertex="1">
          <mxGeometry x="440" y="470" width="120" height="60" as="geometry" />
        </mxCell>
        <mxCell id="v5iqGjtKW1iKM7t-HXTD-36" value="" style="edgeStyle=orthogonalEdgeStyle;rounded=0;orthogonalLoop=1;jettySize=auto;html=1;" parent="1" source="v5iqGjtKW1iKM7t-HXTD-33" target="v5iqGjtKW1iKM7t-HXTD-35" edge="1">
          <mxGeometry relative="1" as="geometry" />
        </mxCell>
        <mxCell id="v5iqGjtKW1iKM7t-HXTD-33" value="output questionOne&lt;div&gt;output &quot;Please input answer in form of a question.&quot;&lt;/div&gt;" style="shape=parallelogram;perimeter=parallelogramPerimeter;whiteSpace=wrap;html=1;fixedSize=1;strokeWidth=2;" parent="1" vertex="1">
          <mxGeometry x="385" y="560" width="230" height="70" as="geometry" />
        </mxCell>
        <mxCell id="v5iqGjtKW1iKM7t-HXTD-38" value="" style="edgeStyle=orthogonalEdgeStyle;rounded=0;orthogonalLoop=1;jettySize=auto;html=1;" parent="1" source="v5iqGjtKW1iKM7t-HXTD-35" target="v5iqGjtKW1iKM7t-HXTD-37" edge="1">
          <mxGeometry relative="1" as="geometry" />
        </mxCell>
        <mxCell id="v5iqGjtKW1iKM7t-HXTD-35" value="input playerAnswer" style="shape=parallelogram;perimeter=parallelogramPerimeter;whiteSpace=wrap;html=1;fixedSize=1;strokeWidth=2;" parent="1" vertex="1">
          <mxGeometry x="415" y="680" width="170" height="80" as="geometry" />
        </mxCell>
        <mxCell id="v5iqGjtKW1iKM7t-HXTD-40" value="" style="edgeStyle=orthogonalEdgeStyle;rounded=0;orthogonalLoop=1;jettySize=auto;html=1;" parent="1" source="v5iqGjtKW1iKM7t-HXTD-37" target="v5iqGjtKW1iKM7t-HXTD-39" edge="1">
          <mxGeometry relative="1" as="geometry" />
        </mxCell>
        <mxCell id="v5iqGjtKW1iKM7t-HXTD-45" value="Yes" style="edgeLabel;html=1;align=center;verticalAlign=middle;resizable=0;points=[];" parent="v5iqGjtKW1iKM7t-HXTD-40" vertex="1" connectable="0">
          <mxGeometry x="-0.15" y="5" relative="1" as="geometry">
            <mxPoint as="offset" />
          </mxGeometry>
        </mxCell>
        <mxCell id="v5iqGjtKW1iKM7t-HXTD-42" value="" style="edgeStyle=orthogonalEdgeStyle;rounded=0;orthogonalLoop=1;jettySize=auto;html=1;" parent="1" source="v5iqGjtKW1iKM7t-HXTD-37" target="v5iqGjtKW1iKM7t-HXTD-41" edge="1">
          <mxGeometry relative="1" as="geometry" />
        </mxCell>
        <mxCell id="v5iqGjtKW1iKM7t-HXTD-44" value="No" style="edgeLabel;html=1;align=center;verticalAlign=middle;resizable=0;points=[];" parent="v5iqGjtKW1iKM7t-HXTD-42" vertex="1" connectable="0">
          <mxGeometry x="-0.0667" y="-5" relative="1" as="geometry">
            <mxPoint as="offset" />
          </mxGeometry>
        </mxCell>
        <mxCell id="v5iqGjtKW1iKM7t-HXTD-37" value="playerAnswer = answerAsQues ?" style="rhombus;whiteSpace=wrap;html=1;strokeWidth=2;" parent="1" vertex="1">
          <mxGeometry x="440" y="800" width="120" height="110" as="geometry" />
        </mxCell>
        <mxCell id="v5iqGjtKW1iKM7t-HXTD-47" value="" style="edgeStyle=orthogonalEdgeStyle;rounded=0;orthogonalLoop=1;jettySize=auto;html=1;" parent="1" source="v5iqGjtKW1iKM7t-HXTD-39" target="v5iqGjtKW1iKM7t-HXTD-46" edge="1">
          <mxGeometry relative="1" as="geometry" />
        </mxCell>
        <mxCell id="v5iqGjtKW1iKM7t-HXTD-39" value="output &quot;You Are Correct!&quot;" style="shape=parallelogram;perimeter=parallelogramPerimeter;whiteSpace=wrap;html=1;fixedSize=1;strokeWidth=2;" parent="1" vertex="1">
          <mxGeometry x="440" y="960" width="120" height="60" as="geometry" />
        </mxCell>
        <mxCell id="63O3EaAYdGOA6AbYA9lr-16" value="" style="edgeStyle=orthogonalEdgeStyle;rounded=0;orthogonalLoop=1;jettySize=auto;html=1;" edge="1" parent="1" source="v5iqGjtKW1iKM7t-HXTD-41" target="63O3EaAYdGOA6AbYA9lr-15">
          <mxGeometry relative="1" as="geometry" />
        </mxCell>
        <mxCell id="v5iqGjtKW1iKM7t-HXTD-41" value="output &quot;Please Try Again.&quot;" style="shape=parallelogram;perimeter=parallelogramPerimeter;whiteSpace=wrap;html=1;fixedSize=1;strokeWidth=2;" parent="1" vertex="1">
          <mxGeometry x="640" y="805" width="120" height="60" as="geometry" />
        </mxCell>
        <mxCell id="v5iqGjtKW1iKM7t-HXTD-46" value="output &quot;Next Question!&quot;" style="shape=parallelogram;perimeter=parallelogramPerimeter;whiteSpace=wrap;html=1;fixedSize=1;strokeWidth=2;" parent="1" vertex="1">
          <mxGeometry x="440" y="1040" width="120" height="60" as="geometry" />
        </mxCell>
        <mxCell id="v5iqGjtKW1iKM7t-HXTD-184" style="edgeStyle=orthogonalEdgeStyle;rounded=0;orthogonalLoop=1;jettySize=auto;html=1;exitX=0;exitY=0.5;exitDx=0;exitDy=0;exitPerimeter=0;" parent="1" source="v5iqGjtKW1iKM7t-HXTD-48" edge="1">
          <mxGeometry relative="1" as="geometry">
            <mxPoint x="130" y="680" as="targetPoint" />
            <Array as="points">
              <mxPoint x="331" y="1150" />
            </Array>
          </mxGeometry>
        </mxCell>
        <mxCell id="v5iqGjtKW1iKM7t-HXTD-48" value="Return" style="strokeWidth=2;html=1;shape=mxgraph.flowchart.terminator;whiteSpace=wrap;" parent="1" vertex="1">
          <mxGeometry x="450" y="1120" width="100" height="60" as="geometry" />
        </mxCell>
        <mxCell id="v5iqGjtKW1iKM7t-HXTD-49" style="edgeStyle=orthogonalEdgeStyle;rounded=0;orthogonalLoop=1;jettySize=auto;html=1;exitX=0.5;exitY=1;exitDx=0;exitDy=0;entryX=0.5;entryY=0;entryDx=0;entryDy=0;entryPerimeter=0;" parent="1" source="v5iqGjtKW1iKM7t-HXTD-46" target="v5iqGjtKW1iKM7t-HXTD-48" edge="1">
          <mxGeometry relative="1" as="geometry" />
        </mxCell>
        <mxCell id="v5iqGjtKW1iKM7t-HXTD-50" value="" style="edgeStyle=orthogonalEdgeStyle;rounded=0;orthogonalLoop=1;jettySize=auto;html=1;" parent="1" source="v5iqGjtKW1iKM7t-HXTD-51" target="v5iqGjtKW1iKM7t-HXTD-53" edge="1">
          <mxGeometry relative="1" as="geometry" />
        </mxCell>
        <mxCell id="v5iqGjtKW1iKM7t-HXTD-51" value="start quesTwo()" style="strokeWidth=2;html=1;shape=mxgraph.flowchart.terminator;whiteSpace=wrap;" parent="1" vertex="1">
          <mxGeometry x="915" y="250" width="100" height="60" as="geometry" />
        </mxCell>
        <mxCell id="v5iqGjtKW1iKM7t-HXTD-52" value="" style="edgeStyle=orthogonalEdgeStyle;rounded=0;orthogonalLoop=1;jettySize=auto;html=1;" parent="1" source="v5iqGjtKW1iKM7t-HXTD-53" target="v5iqGjtKW1iKM7t-HXTD-55" edge="1">
          <mxGeometry relative="1" as="geometry" />
        </mxCell>
        <mxCell id="v5iqGjtKW1iKM7t-HXTD-53" value="Declarations&lt;div&gt;string questionTwo&lt;/div&gt;&lt;div&gt;string answerAsQues&lt;/div&gt;&lt;div&gt;string playerAnswer&lt;/div&gt;" style="whiteSpace=wrap;html=1;strokeWidth=2;" parent="1" vertex="1">
          <mxGeometry x="905" y="375" width="120" height="60" as="geometry" />
        </mxCell>
        <mxCell id="v5iqGjtKW1iKM7t-HXTD-54" value="" style="edgeStyle=orthogonalEdgeStyle;rounded=0;orthogonalLoop=1;jettySize=auto;html=1;" parent="1" source="v5iqGjtKW1iKM7t-HXTD-55" target="v5iqGjtKW1iKM7t-HXTD-57" edge="1">
          <mxGeometry relative="1" as="geometry" />
        </mxCell>
        <mxCell id="v5iqGjtKW1iKM7t-HXTD-55" value="countDown()" style="shape=process;whiteSpace=wrap;html=1;backgroundOutline=1;strokeWidth=2;" parent="1" vertex="1">
          <mxGeometry x="905" y="455" width="120" height="60" as="geometry" />
        </mxCell>
        <mxCell id="v5iqGjtKW1iKM7t-HXTD-56" value="" style="edgeStyle=orthogonalEdgeStyle;rounded=0;orthogonalLoop=1;jettySize=auto;html=1;" parent="1" source="v5iqGjtKW1iKM7t-HXTD-57" target="v5iqGjtKW1iKM7t-HXTD-59" edge="1">
          <mxGeometry relative="1" as="geometry" />
        </mxCell>
        <mxCell id="v5iqGjtKW1iKM7t-HXTD-57" value="output questionTwo&lt;div&gt;output &quot;Please input answer in form of a question.&quot;&lt;/div&gt;" style="shape=parallelogram;perimeter=parallelogramPerimeter;whiteSpace=wrap;html=1;fixedSize=1;strokeWidth=2;" parent="1" vertex="1">
          <mxGeometry x="850" y="545" width="230" height="70" as="geometry" />
        </mxCell>
        <mxCell id="v5iqGjtKW1iKM7t-HXTD-58" value="" style="edgeStyle=orthogonalEdgeStyle;rounded=0;orthogonalLoop=1;jettySize=auto;html=1;" parent="1" source="v5iqGjtKW1iKM7t-HXTD-59" target="v5iqGjtKW1iKM7t-HXTD-64" edge="1">
          <mxGeometry relative="1" as="geometry" />
        </mxCell>
        <mxCell id="v5iqGjtKW1iKM7t-HXTD-59" value="input playerAnswer" style="shape=parallelogram;perimeter=parallelogramPerimeter;whiteSpace=wrap;html=1;fixedSize=1;strokeWidth=2;" parent="1" vertex="1">
          <mxGeometry x="880" y="640" width="170" height="80" as="geometry" />
        </mxCell>
        <mxCell id="v5iqGjtKW1iKM7t-HXTD-60" value="" style="edgeStyle=orthogonalEdgeStyle;rounded=0;orthogonalLoop=1;jettySize=auto;html=1;" parent="1" source="v5iqGjtKW1iKM7t-HXTD-64" target="v5iqGjtKW1iKM7t-HXTD-66" edge="1">
          <mxGeometry relative="1" as="geometry" />
        </mxCell>
        <mxCell id="v5iqGjtKW1iKM7t-HXTD-61" value="Yes" style="edgeLabel;html=1;align=center;verticalAlign=middle;resizable=0;points=[];" parent="v5iqGjtKW1iKM7t-HXTD-60" vertex="1" connectable="0">
          <mxGeometry x="-0.15" y="5" relative="1" as="geometry">
            <mxPoint as="offset" />
          </mxGeometry>
        </mxCell>
        <mxCell id="v5iqGjtKW1iKM7t-HXTD-62" value="" style="edgeStyle=orthogonalEdgeStyle;rounded=0;orthogonalLoop=1;jettySize=auto;html=1;" parent="1" source="v5iqGjtKW1iKM7t-HXTD-64" edge="1">
          <mxGeometry relative="1" as="geometry">
            <mxPoint x="1115" y="820" as="targetPoint" />
          </mxGeometry>
        </mxCell>
        <mxCell id="v5iqGjtKW1iKM7t-HXTD-63" value="No" style="edgeLabel;html=1;align=center;verticalAlign=middle;resizable=0;points=[];" parent="v5iqGjtKW1iKM7t-HXTD-62" vertex="1" connectable="0">
          <mxGeometry x="-0.0667" y="-5" relative="1" as="geometry">
            <mxPoint as="offset" />
          </mxGeometry>
        </mxCell>
        <mxCell id="v5iqGjtKW1iKM7t-HXTD-64" value="playerAnswer = answerAsQues ?" style="rhombus;whiteSpace=wrap;html=1;strokeWidth=2;" parent="1" vertex="1">
          <mxGeometry x="905" y="765" width="120" height="110" as="geometry" />
        </mxCell>
        <mxCell id="v5iqGjtKW1iKM7t-HXTD-65" value="" style="edgeStyle=orthogonalEdgeStyle;rounded=0;orthogonalLoop=1;jettySize=auto;html=1;" parent="1" source="v5iqGjtKW1iKM7t-HXTD-66" target="v5iqGjtKW1iKM7t-HXTD-69" edge="1">
          <mxGeometry relative="1" as="geometry" />
        </mxCell>
        <mxCell id="v5iqGjtKW1iKM7t-HXTD-66" value="output &quot;You Are Correct!&quot;" style="shape=parallelogram;perimeter=parallelogramPerimeter;whiteSpace=wrap;html=1;fixedSize=1;strokeWidth=2;" parent="1" vertex="1">
          <mxGeometry x="905" y="945" width="120" height="60" as="geometry" />
        </mxCell>
        <mxCell id="v5iqGjtKW1iKM7t-HXTD-69" value="output &quot;Next Question!&quot;" style="shape=parallelogram;perimeter=parallelogramPerimeter;whiteSpace=wrap;html=1;fixedSize=1;strokeWidth=2;" parent="1" vertex="1">
          <mxGeometry x="905" y="1025" width="120" height="60" as="geometry" />
        </mxCell>
        <mxCell id="v5iqGjtKW1iKM7t-HXTD-186" style="edgeStyle=orthogonalEdgeStyle;rounded=0;orthogonalLoop=1;jettySize=auto;html=1;exitX=0;exitY=0.5;exitDx=0;exitDy=0;exitPerimeter=0;fillColor=#dae8fc;strokeColor=#6c8ebf;" parent="1" source="v5iqGjtKW1iKM7t-HXTD-70" edge="1">
          <mxGeometry relative="1" as="geometry">
            <mxPoint x="130" y="770" as="targetPoint" />
            <Array as="points">
              <mxPoint x="561" y="1135" />
              <mxPoint x="561" y="1220" />
              <mxPoint x="280" y="1220" />
              <mxPoint x="280" y="770" />
            </Array>
          </mxGeometry>
        </mxCell>
        <mxCell id="v5iqGjtKW1iKM7t-HXTD-70" value="Return" style="strokeWidth=2;html=1;shape=mxgraph.flowchart.terminator;whiteSpace=wrap;" parent="1" vertex="1">
          <mxGeometry x="915" y="1105" width="100" height="60" as="geometry" />
        </mxCell>
        <mxCell id="v5iqGjtKW1iKM7t-HXTD-71" style="edgeStyle=orthogonalEdgeStyle;rounded=0;orthogonalLoop=1;jettySize=auto;html=1;exitX=0.5;exitY=1;exitDx=0;exitDy=0;entryX=0.5;entryY=0;entryDx=0;entryDy=0;entryPerimeter=0;" parent="1" source="v5iqGjtKW1iKM7t-HXTD-69" target="v5iqGjtKW1iKM7t-HXTD-70" edge="1">
          <mxGeometry relative="1" as="geometry" />
        </mxCell>
        <mxCell id="v5iqGjtKW1iKM7t-HXTD-72" value="" style="edgeStyle=orthogonalEdgeStyle;rounded=0;orthogonalLoop=1;jettySize=auto;html=1;" parent="1" source="v5iqGjtKW1iKM7t-HXTD-73" target="v5iqGjtKW1iKM7t-HXTD-75" edge="1">
          <mxGeometry relative="1" as="geometry" />
        </mxCell>
        <mxCell id="v5iqGjtKW1iKM7t-HXTD-73" value="start quesThree()" style="strokeWidth=2;html=1;shape=mxgraph.flowchart.terminator;whiteSpace=wrap;" parent="1" vertex="1">
          <mxGeometry x="1305" y="270" width="100" height="60" as="geometry" />
        </mxCell>
        <mxCell id="v5iqGjtKW1iKM7t-HXTD-74" value="" style="edgeStyle=orthogonalEdgeStyle;rounded=0;orthogonalLoop=1;jettySize=auto;html=1;" parent="1" source="v5iqGjtKW1iKM7t-HXTD-75" target="v5iqGjtKW1iKM7t-HXTD-77" edge="1">
          <mxGeometry relative="1" as="geometry" />
        </mxCell>
        <mxCell id="v5iqGjtKW1iKM7t-HXTD-75" value="Declarations&lt;div&gt;string questionThree&lt;/div&gt;&lt;div&gt;string answerAsQues&lt;/div&gt;&lt;div&gt;string playerAnswer&lt;/div&gt;" style="whiteSpace=wrap;html=1;strokeWidth=2;" parent="1" vertex="1">
          <mxGeometry x="1295" y="350" width="120" height="60" as="geometry" />
        </mxCell>
        <mxCell id="v5iqGjtKW1iKM7t-HXTD-76" value="" style="edgeStyle=orthogonalEdgeStyle;rounded=0;orthogonalLoop=1;jettySize=auto;html=1;" parent="1" source="v5iqGjtKW1iKM7t-HXTD-77" target="v5iqGjtKW1iKM7t-HXTD-79" edge="1">
          <mxGeometry relative="1" as="geometry" />
        </mxCell>
        <mxCell id="v5iqGjtKW1iKM7t-HXTD-77" value="countDown()" style="shape=process;whiteSpace=wrap;html=1;backgroundOutline=1;strokeWidth=2;" parent="1" vertex="1">
          <mxGeometry x="1295" y="430" width="120" height="60" as="geometry" />
        </mxCell>
        <mxCell id="v5iqGjtKW1iKM7t-HXTD-78" value="" style="edgeStyle=orthogonalEdgeStyle;rounded=0;orthogonalLoop=1;jettySize=auto;html=1;" parent="1" source="v5iqGjtKW1iKM7t-HXTD-79" target="v5iqGjtKW1iKM7t-HXTD-81" edge="1">
          <mxGeometry relative="1" as="geometry" />
        </mxCell>
        <mxCell id="v5iqGjtKW1iKM7t-HXTD-79" value="output questionThree&lt;div&gt;output &quot;Please input answer in form of a question.&quot;&lt;/div&gt;" style="shape=parallelogram;perimeter=parallelogramPerimeter;whiteSpace=wrap;html=1;fixedSize=1;strokeWidth=2;" parent="1" vertex="1">
          <mxGeometry x="1225" y="520" width="260" height="70" as="geometry" />
        </mxCell>
        <mxCell id="v5iqGjtKW1iKM7t-HXTD-80" value="" style="edgeStyle=orthogonalEdgeStyle;rounded=0;orthogonalLoop=1;jettySize=auto;html=1;" parent="1" source="v5iqGjtKW1iKM7t-HXTD-81" target="v5iqGjtKW1iKM7t-HXTD-86" edge="1">
          <mxGeometry relative="1" as="geometry" />
        </mxCell>
        <mxCell id="v5iqGjtKW1iKM7t-HXTD-81" value="input playerAnswer" style="shape=parallelogram;perimeter=parallelogramPerimeter;whiteSpace=wrap;html=1;fixedSize=1;strokeWidth=2;" parent="1" vertex="1">
          <mxGeometry x="1270" y="640" width="170" height="80" as="geometry" />
        </mxCell>
        <mxCell id="v5iqGjtKW1iKM7t-HXTD-82" value="" style="edgeStyle=orthogonalEdgeStyle;rounded=0;orthogonalLoop=1;jettySize=auto;html=1;" parent="1" source="v5iqGjtKW1iKM7t-HXTD-86" target="v5iqGjtKW1iKM7t-HXTD-88" edge="1">
          <mxGeometry relative="1" as="geometry" />
        </mxCell>
        <mxCell id="v5iqGjtKW1iKM7t-HXTD-83" value="Yes" style="edgeLabel;html=1;align=center;verticalAlign=middle;resizable=0;points=[];" parent="v5iqGjtKW1iKM7t-HXTD-82" vertex="1" connectable="0">
          <mxGeometry x="-0.15" y="5" relative="1" as="geometry">
            <mxPoint as="offset" />
          </mxGeometry>
        </mxCell>
        <mxCell id="v5iqGjtKW1iKM7t-HXTD-84" value="" style="edgeStyle=orthogonalEdgeStyle;rounded=0;orthogonalLoop=1;jettySize=auto;html=1;" parent="1" source="v5iqGjtKW1iKM7t-HXTD-86" edge="1">
          <mxGeometry relative="1" as="geometry">
            <mxPoint x="1505" y="795" as="targetPoint" />
          </mxGeometry>
        </mxCell>
        <mxCell id="v5iqGjtKW1iKM7t-HXTD-85" value="No" style="edgeLabel;html=1;align=center;verticalAlign=middle;resizable=0;points=[];" parent="v5iqGjtKW1iKM7t-HXTD-84" vertex="1" connectable="0">
          <mxGeometry x="-0.0667" y="-5" relative="1" as="geometry">
            <mxPoint as="offset" />
          </mxGeometry>
        </mxCell>
        <mxCell id="v5iqGjtKW1iKM7t-HXTD-86" value="playerAnswer = answerAsQues ?" style="rhombus;whiteSpace=wrap;html=1;strokeWidth=2;" parent="1" vertex="1">
          <mxGeometry x="1295" y="755" width="120" height="110" as="geometry" />
        </mxCell>
        <mxCell id="v5iqGjtKW1iKM7t-HXTD-87" value="" style="edgeStyle=orthogonalEdgeStyle;rounded=0;orthogonalLoop=1;jettySize=auto;html=1;" parent="1" source="v5iqGjtKW1iKM7t-HXTD-88" target="v5iqGjtKW1iKM7t-HXTD-91" edge="1">
          <mxGeometry relative="1" as="geometry" />
        </mxCell>
        <mxCell id="v5iqGjtKW1iKM7t-HXTD-88" value="output &quot;You Are Correct!&quot;" style="shape=parallelogram;perimeter=parallelogramPerimeter;whiteSpace=wrap;html=1;fixedSize=1;strokeWidth=2;" parent="1" vertex="1">
          <mxGeometry x="1295" y="920" width="120" height="60" as="geometry" />
        </mxCell>
        <mxCell id="v5iqGjtKW1iKM7t-HXTD-91" value="output &quot;Next Question!&quot;" style="shape=parallelogram;perimeter=parallelogramPerimeter;whiteSpace=wrap;html=1;fixedSize=1;strokeWidth=2;" parent="1" vertex="1">
          <mxGeometry x="1295" y="1000" width="120" height="60" as="geometry" />
        </mxCell>
        <mxCell id="v5iqGjtKW1iKM7t-HXTD-188" style="edgeStyle=orthogonalEdgeStyle;rounded=0;orthogonalLoop=1;jettySize=auto;html=1;exitX=0;exitY=0.5;exitDx=0;exitDy=0;exitPerimeter=0;fillColor=#f8cecc;strokeColor=#b85450;" parent="1" source="v5iqGjtKW1iKM7t-HXTD-92" edge="1">
          <mxGeometry relative="1" as="geometry">
            <mxPoint x="130" y="860" as="targetPoint" />
            <Array as="points">
              <mxPoint x="1081" y="1110" />
              <mxPoint x="1081" y="1190" />
              <mxPoint x="310" y="1190" />
            </Array>
          </mxGeometry>
        </mxCell>
        <mxCell id="v5iqGjtKW1iKM7t-HXTD-92" value="Return" style="strokeWidth=2;html=1;shape=mxgraph.flowchart.terminator;whiteSpace=wrap;" parent="1" vertex="1">
          <mxGeometry x="1305" y="1080" width="100" height="60" as="geometry" />
        </mxCell>
        <mxCell id="v5iqGjtKW1iKM7t-HXTD-93" style="edgeStyle=orthogonalEdgeStyle;rounded=0;orthogonalLoop=1;jettySize=auto;html=1;exitX=0.5;exitY=1;exitDx=0;exitDy=0;entryX=0.5;entryY=0;entryDx=0;entryDy=0;entryPerimeter=0;" parent="1" source="v5iqGjtKW1iKM7t-HXTD-91" target="v5iqGjtKW1iKM7t-HXTD-92" edge="1">
          <mxGeometry relative="1" as="geometry" />
        </mxCell>
        <mxCell id="v5iqGjtKW1iKM7t-HXTD-94" value="" style="edgeStyle=orthogonalEdgeStyle;rounded=0;orthogonalLoop=1;jettySize=auto;html=1;" parent="1" source="v5iqGjtKW1iKM7t-HXTD-95" target="v5iqGjtKW1iKM7t-HXTD-97" edge="1">
          <mxGeometry relative="1" as="geometry" />
        </mxCell>
        <mxCell id="v5iqGjtKW1iKM7t-HXTD-95" value="start quesFour()" style="strokeWidth=2;html=1;shape=mxgraph.flowchart.terminator;whiteSpace=wrap;" parent="1" vertex="1">
          <mxGeometry x="1725" y="280" width="100" height="60" as="geometry" />
        </mxCell>
        <mxCell id="v5iqGjtKW1iKM7t-HXTD-96" value="" style="edgeStyle=orthogonalEdgeStyle;rounded=0;orthogonalLoop=1;jettySize=auto;html=1;" parent="1" source="v5iqGjtKW1iKM7t-HXTD-97" target="v5iqGjtKW1iKM7t-HXTD-99" edge="1">
          <mxGeometry relative="1" as="geometry" />
        </mxCell>
        <mxCell id="v5iqGjtKW1iKM7t-HXTD-97" value="Declarations&lt;div&gt;string questionFour&lt;/div&gt;&lt;div&gt;string answerAsQues&lt;/div&gt;&lt;div&gt;string playerAnswer&lt;/div&gt;" style="whiteSpace=wrap;html=1;strokeWidth=2;" parent="1" vertex="1">
          <mxGeometry x="1715" y="360" width="120" height="60" as="geometry" />
        </mxCell>
        <mxCell id="v5iqGjtKW1iKM7t-HXTD-98" value="" style="edgeStyle=orthogonalEdgeStyle;rounded=0;orthogonalLoop=1;jettySize=auto;html=1;" parent="1" source="v5iqGjtKW1iKM7t-HXTD-99" target="v5iqGjtKW1iKM7t-HXTD-101" edge="1">
          <mxGeometry relative="1" as="geometry" />
        </mxCell>
        <mxCell id="v5iqGjtKW1iKM7t-HXTD-99" value="countDown()" style="shape=process;whiteSpace=wrap;html=1;backgroundOutline=1;strokeWidth=2;" parent="1" vertex="1">
          <mxGeometry x="1715" y="440" width="120" height="60" as="geometry" />
        </mxCell>
        <mxCell id="v5iqGjtKW1iKM7t-HXTD-100" value="" style="edgeStyle=orthogonalEdgeStyle;rounded=0;orthogonalLoop=1;jettySize=auto;html=1;" parent="1" source="v5iqGjtKW1iKM7t-HXTD-101" target="v5iqGjtKW1iKM7t-HXTD-103" edge="1">
          <mxGeometry relative="1" as="geometry" />
        </mxCell>
        <mxCell id="v5iqGjtKW1iKM7t-HXTD-101" value="output questionFour&lt;div&gt;output &quot;Please input answer in form of a question.&quot;&lt;/div&gt;" style="shape=parallelogram;perimeter=parallelogramPerimeter;whiteSpace=wrap;html=1;fixedSize=1;strokeWidth=2;" parent="1" vertex="1">
          <mxGeometry x="1650" y="530" width="250" height="70" as="geometry" />
        </mxCell>
        <mxCell id="v5iqGjtKW1iKM7t-HXTD-102" value="" style="edgeStyle=orthogonalEdgeStyle;rounded=0;orthogonalLoop=1;jettySize=auto;html=1;" parent="1" source="v5iqGjtKW1iKM7t-HXTD-103" target="v5iqGjtKW1iKM7t-HXTD-108" edge="1">
          <mxGeometry relative="1" as="geometry" />
        </mxCell>
        <mxCell id="v5iqGjtKW1iKM7t-HXTD-103" value="input playerAnswer" style="shape=parallelogram;perimeter=parallelogramPerimeter;whiteSpace=wrap;html=1;fixedSize=1;strokeWidth=2;" parent="1" vertex="1">
          <mxGeometry x="1690" y="650" width="170" height="80" as="geometry" />
        </mxCell>
        <mxCell id="v5iqGjtKW1iKM7t-HXTD-104" value="" style="edgeStyle=orthogonalEdgeStyle;rounded=0;orthogonalLoop=1;jettySize=auto;html=1;" parent="1" source="v5iqGjtKW1iKM7t-HXTD-108" target="v5iqGjtKW1iKM7t-HXTD-110" edge="1">
          <mxGeometry relative="1" as="geometry" />
        </mxCell>
        <mxCell id="v5iqGjtKW1iKM7t-HXTD-105" value="Yes" style="edgeLabel;html=1;align=center;verticalAlign=middle;resizable=0;points=[];" parent="v5iqGjtKW1iKM7t-HXTD-104" vertex="1" connectable="0">
          <mxGeometry x="-0.15" y="5" relative="1" as="geometry">
            <mxPoint as="offset" />
          </mxGeometry>
        </mxCell>
        <mxCell id="v5iqGjtKW1iKM7t-HXTD-106" value="" style="edgeStyle=orthogonalEdgeStyle;rounded=0;orthogonalLoop=1;jettySize=auto;html=1;" parent="1" source="v5iqGjtKW1iKM7t-HXTD-108" edge="1">
          <mxGeometry relative="1" as="geometry">
            <mxPoint x="1925" y="805" as="targetPoint" />
          </mxGeometry>
        </mxCell>
        <mxCell id="v5iqGjtKW1iKM7t-HXTD-107" value="No" style="edgeLabel;html=1;align=center;verticalAlign=middle;resizable=0;points=[];" parent="v5iqGjtKW1iKM7t-HXTD-106" vertex="1" connectable="0">
          <mxGeometry x="-0.0667" y="-5" relative="1" as="geometry">
            <mxPoint as="offset" />
          </mxGeometry>
        </mxCell>
        <mxCell id="v5iqGjtKW1iKM7t-HXTD-108" value="playerAnswer = answerAsQues ?" style="rhombus;whiteSpace=wrap;html=1;strokeWidth=2;" parent="1" vertex="1">
          <mxGeometry x="1715" y="765" width="120" height="110" as="geometry" />
        </mxCell>
        <mxCell id="v5iqGjtKW1iKM7t-HXTD-109" value="" style="edgeStyle=orthogonalEdgeStyle;rounded=0;orthogonalLoop=1;jettySize=auto;html=1;" parent="1" source="v5iqGjtKW1iKM7t-HXTD-110" target="v5iqGjtKW1iKM7t-HXTD-113" edge="1">
          <mxGeometry relative="1" as="geometry" />
        </mxCell>
        <mxCell id="v5iqGjtKW1iKM7t-HXTD-110" value="output &quot;You Are Correct!&quot;" style="shape=parallelogram;perimeter=parallelogramPerimeter;whiteSpace=wrap;html=1;fixedSize=1;strokeWidth=2;" parent="1" vertex="1">
          <mxGeometry x="1715" y="930" width="120" height="60" as="geometry" />
        </mxCell>
        <mxCell id="v5iqGjtKW1iKM7t-HXTD-113" value="output &quot;Next Question!&quot;" style="shape=parallelogram;perimeter=parallelogramPerimeter;whiteSpace=wrap;html=1;fixedSize=1;strokeWidth=2;" parent="1" vertex="1">
          <mxGeometry x="1715" y="1010" width="120" height="60" as="geometry" />
        </mxCell>
        <mxCell id="v5iqGjtKW1iKM7t-HXTD-190" style="edgeStyle=orthogonalEdgeStyle;rounded=0;orthogonalLoop=1;jettySize=auto;html=1;exitX=0.5;exitY=1;exitDx=0;exitDy=0;exitPerimeter=0;fillColor=#d5e8d4;strokeColor=#82b366;" parent="1" source="v5iqGjtKW1iKM7t-HXTD-114" edge="1">
          <mxGeometry relative="1" as="geometry">
            <mxPoint x="130" y="960" as="targetPoint" />
            <Array as="points">
              <mxPoint x="1775" y="1180" />
              <mxPoint x="741" y="1180" />
              <mxPoint x="741" y="1200" />
              <mxPoint x="288" y="1200" />
            </Array>
          </mxGeometry>
        </mxCell>
        <mxCell id="v5iqGjtKW1iKM7t-HXTD-114" value="Recall" style="strokeWidth=2;html=1;shape=mxgraph.flowchart.terminator;whiteSpace=wrap;" parent="1" vertex="1">
          <mxGeometry x="1725" y="1090" width="100" height="60" as="geometry" />
        </mxCell>
        <mxCell id="v5iqGjtKW1iKM7t-HXTD-115" style="edgeStyle=orthogonalEdgeStyle;rounded=0;orthogonalLoop=1;jettySize=auto;html=1;exitX=0.5;exitY=1;exitDx=0;exitDy=0;entryX=0.5;entryY=0;entryDx=0;entryDy=0;entryPerimeter=0;" parent="1" source="v5iqGjtKW1iKM7t-HXTD-113" target="v5iqGjtKW1iKM7t-HXTD-114" edge="1">
          <mxGeometry relative="1" as="geometry" />
        </mxCell>
        <mxCell id="v5iqGjtKW1iKM7t-HXTD-116" value="" style="edgeStyle=orthogonalEdgeStyle;rounded=0;orthogonalLoop=1;jettySize=auto;html=1;" parent="1" source="v5iqGjtKW1iKM7t-HXTD-117" target="v5iqGjtKW1iKM7t-HXTD-119" edge="1">
          <mxGeometry relative="1" as="geometry" />
        </mxCell>
        <mxCell id="v5iqGjtKW1iKM7t-HXTD-117" value="start quesFive()" style="strokeWidth=2;html=1;shape=mxgraph.flowchart.terminator;whiteSpace=wrap;" parent="1" vertex="1">
          <mxGeometry x="2125" y="280" width="100" height="60" as="geometry" />
        </mxCell>
        <mxCell id="v5iqGjtKW1iKM7t-HXTD-118" value="" style="edgeStyle=orthogonalEdgeStyle;rounded=0;orthogonalLoop=1;jettySize=auto;html=1;" parent="1" source="v5iqGjtKW1iKM7t-HXTD-119" target="v5iqGjtKW1iKM7t-HXTD-121" edge="1">
          <mxGeometry relative="1" as="geometry" />
        </mxCell>
        <mxCell id="v5iqGjtKW1iKM7t-HXTD-119" value="Declarations&lt;div&gt;string questionFive&lt;/div&gt;&lt;div&gt;string answerAsQues&lt;/div&gt;&lt;div&gt;string playerAnswer&lt;/div&gt;" style="whiteSpace=wrap;html=1;strokeWidth=2;" parent="1" vertex="1">
          <mxGeometry x="2115" y="360" width="120" height="60" as="geometry" />
        </mxCell>
        <mxCell id="v5iqGjtKW1iKM7t-HXTD-120" value="" style="edgeStyle=orthogonalEdgeStyle;rounded=0;orthogonalLoop=1;jettySize=auto;html=1;" parent="1" source="v5iqGjtKW1iKM7t-HXTD-121" target="v5iqGjtKW1iKM7t-HXTD-123" edge="1">
          <mxGeometry relative="1" as="geometry" />
        </mxCell>
        <mxCell id="v5iqGjtKW1iKM7t-HXTD-121" value="countDown()" style="shape=process;whiteSpace=wrap;html=1;backgroundOutline=1;strokeWidth=2;" parent="1" vertex="1">
          <mxGeometry x="2115" y="440" width="120" height="60" as="geometry" />
        </mxCell>
        <mxCell id="v5iqGjtKW1iKM7t-HXTD-122" value="" style="edgeStyle=orthogonalEdgeStyle;rounded=0;orthogonalLoop=1;jettySize=auto;html=1;" parent="1" source="v5iqGjtKW1iKM7t-HXTD-123" target="v5iqGjtKW1iKM7t-HXTD-125" edge="1">
          <mxGeometry relative="1" as="geometry" />
        </mxCell>
        <mxCell id="v5iqGjtKW1iKM7t-HXTD-123" value="output questionFive&lt;div&gt;output &quot;Please input answer in form of a question.&quot;&lt;/div&gt;" style="shape=parallelogram;perimeter=parallelogramPerimeter;whiteSpace=wrap;html=1;fixedSize=1;strokeWidth=2;" parent="1" vertex="1">
          <mxGeometry x="2060" y="530" width="230" height="70" as="geometry" />
        </mxCell>
        <mxCell id="v5iqGjtKW1iKM7t-HXTD-124" value="" style="edgeStyle=orthogonalEdgeStyle;rounded=0;orthogonalLoop=1;jettySize=auto;html=1;" parent="1" source="v5iqGjtKW1iKM7t-HXTD-125" target="v5iqGjtKW1iKM7t-HXTD-130" edge="1">
          <mxGeometry relative="1" as="geometry" />
        </mxCell>
        <mxCell id="v5iqGjtKW1iKM7t-HXTD-125" value="input playerAnswer" style="shape=parallelogram;perimeter=parallelogramPerimeter;whiteSpace=wrap;html=1;fixedSize=1;strokeWidth=2;" parent="1" vertex="1">
          <mxGeometry x="2090" y="650" width="170" height="80" as="geometry" />
        </mxCell>
        <mxCell id="v5iqGjtKW1iKM7t-HXTD-126" value="" style="edgeStyle=orthogonalEdgeStyle;rounded=0;orthogonalLoop=1;jettySize=auto;html=1;" parent="1" source="v5iqGjtKW1iKM7t-HXTD-130" target="v5iqGjtKW1iKM7t-HXTD-132" edge="1">
          <mxGeometry relative="1" as="geometry" />
        </mxCell>
        <mxCell id="v5iqGjtKW1iKM7t-HXTD-127" value="Yes" style="edgeLabel;html=1;align=center;verticalAlign=middle;resizable=0;points=[];" parent="v5iqGjtKW1iKM7t-HXTD-126" vertex="1" connectable="0">
          <mxGeometry x="-0.15" y="5" relative="1" as="geometry">
            <mxPoint as="offset" />
          </mxGeometry>
        </mxCell>
        <mxCell id="v5iqGjtKW1iKM7t-HXTD-128" value="" style="edgeStyle=orthogonalEdgeStyle;rounded=0;orthogonalLoop=1;jettySize=auto;html=1;" parent="1" source="v5iqGjtKW1iKM7t-HXTD-130" edge="1">
          <mxGeometry relative="1" as="geometry">
            <mxPoint x="2325" y="802.5" as="targetPoint" />
          </mxGeometry>
        </mxCell>
        <mxCell id="v5iqGjtKW1iKM7t-HXTD-129" value="No" style="edgeLabel;html=1;align=center;verticalAlign=middle;resizable=0;points=[];" parent="v5iqGjtKW1iKM7t-HXTD-128" vertex="1" connectable="0">
          <mxGeometry x="-0.0667" y="-5" relative="1" as="geometry">
            <mxPoint as="offset" />
          </mxGeometry>
        </mxCell>
        <mxCell id="v5iqGjtKW1iKM7t-HXTD-130" value="playerAnswer = answerAsQues ?" style="rhombus;whiteSpace=wrap;html=1;strokeWidth=2;" parent="1" vertex="1">
          <mxGeometry x="2115" y="760" width="120" height="110" as="geometry" />
        </mxCell>
        <mxCell id="v5iqGjtKW1iKM7t-HXTD-131" value="" style="edgeStyle=orthogonalEdgeStyle;rounded=0;orthogonalLoop=1;jettySize=auto;html=1;" parent="1" source="v5iqGjtKW1iKM7t-HXTD-132" target="v5iqGjtKW1iKM7t-HXTD-135" edge="1">
          <mxGeometry relative="1" as="geometry" />
        </mxCell>
        <mxCell id="v5iqGjtKW1iKM7t-HXTD-132" value="output &quot;You Are Correct!&quot;" style="shape=parallelogram;perimeter=parallelogramPerimeter;whiteSpace=wrap;html=1;fixedSize=1;strokeWidth=2;" parent="1" vertex="1">
          <mxGeometry x="2115" y="930" width="120" height="60" as="geometry" />
        </mxCell>
        <mxCell id="v5iqGjtKW1iKM7t-HXTD-135" value="output &quot;That was the Final Question!&quot;" style="shape=parallelogram;perimeter=parallelogramPerimeter;whiteSpace=wrap;html=1;fixedSize=1;strokeWidth=2;" parent="1" vertex="1">
          <mxGeometry x="2087.5" y="1025" width="175" height="60" as="geometry" />
        </mxCell>
        <mxCell id="v5iqGjtKW1iKM7t-HXTD-193" style="edgeStyle=orthogonalEdgeStyle;rounded=0;orthogonalLoop=1;jettySize=auto;html=1;exitX=0;exitY=0.5;exitDx=0;exitDy=0;exitPerimeter=0;fillColor=#e1d5e7;strokeColor=#9673a6;" parent="1" edge="1">
          <mxGeometry relative="1" as="geometry">
            <mxPoint x="130" y="1090" as="targetPoint" />
            <mxPoint x="2125" y="1165" as="sourcePoint" />
            <Array as="points">
              <mxPoint x="2125" y="1166" />
              <mxPoint x="1579" y="1166" />
              <mxPoint x="1579" y="1155" />
              <mxPoint x="1033" y="1155" />
              <mxPoint x="1033" y="1170" />
              <mxPoint x="550" y="1170" />
              <mxPoint x="550" y="1210" />
              <mxPoint x="170" y="1210" />
              <mxPoint x="170" y="1090" />
            </Array>
          </mxGeometry>
        </mxCell>
        <mxCell id="v5iqGjtKW1iKM7t-HXTD-136" value="Recall" style="strokeWidth=2;html=1;shape=mxgraph.flowchart.terminator;whiteSpace=wrap;" parent="1" vertex="1">
          <mxGeometry x="2125" y="1120" width="100" height="60" as="geometry" />
        </mxCell>
        <mxCell id="v5iqGjtKW1iKM7t-HXTD-137" style="edgeStyle=orthogonalEdgeStyle;rounded=0;orthogonalLoop=1;jettySize=auto;html=1;exitX=0.5;exitY=1;exitDx=0;exitDy=0;entryX=0.5;entryY=0;entryDx=0;entryDy=0;entryPerimeter=0;" parent="1" source="v5iqGjtKW1iKM7t-HXTD-135" target="v5iqGjtKW1iKM7t-HXTD-136" edge="1">
          <mxGeometry relative="1" as="geometry" />
        </mxCell>
        <mxCell id="v5iqGjtKW1iKM7t-HXTD-140" value="" style="edgeStyle=orthogonalEdgeStyle;rounded=0;orthogonalLoop=1;jettySize=auto;html=1;" parent="1" source="v5iqGjtKW1iKM7t-HXTD-138" target="v5iqGjtKW1iKM7t-HXTD-139" edge="1">
          <mxGeometry relative="1" as="geometry" />
        </mxCell>
        <mxCell id="v5iqGjtKW1iKM7t-HXTD-138" value="start countDown()" style="strokeWidth=2;html=1;shape=mxgraph.flowchart.terminator;whiteSpace=wrap;" parent="1" vertex="1">
          <mxGeometry x="582.5" y="1220" width="100" height="60" as="geometry" />
        </mxCell>
        <mxCell id="v5iqGjtKW1iKM7t-HXTD-144" value="" style="edgeStyle=orthogonalEdgeStyle;rounded=0;orthogonalLoop=1;jettySize=auto;html=1;" parent="1" source="v5iqGjtKW1iKM7t-HXTD-139" target="v5iqGjtKW1iKM7t-HXTD-143" edge="1">
          <mxGeometry relative="1" as="geometry" />
        </mxCell>
        <mxCell id="v5iqGjtKW1iKM7t-HXTD-139" value="Declarations&lt;div&gt;num desiredDuration = 60&lt;/div&gt;&lt;div&gt;boolean isRunning&lt;/div&gt;" style="whiteSpace=wrap;html=1;strokeWidth=2;" parent="1" vertex="1">
          <mxGeometry x="572.5" y="1320" width="120" height="60" as="geometry" />
        </mxCell>
        <mxCell id="v5iqGjtKW1iKM7t-HXTD-164" style="edgeStyle=orthogonalEdgeStyle;rounded=0;orthogonalLoop=1;jettySize=auto;html=1;exitX=0.5;exitY=1;exitDx=0;exitDy=0;" parent="1" source="v5iqGjtKW1iKM7t-HXTD-143" target="v5iqGjtKW1iKM7t-HXTD-149" edge="1">
          <mxGeometry relative="1" as="geometry" />
        </mxCell>
        <mxCell id="v5iqGjtKW1iKM7t-HXTD-143" value="set totalTime=desired Duration" style="whiteSpace=wrap;html=1;strokeWidth=2;" parent="1" vertex="1">
          <mxGeometry x="572.5" y="1410" width="120" height="60" as="geometry" />
        </mxCell>
        <mxCell id="v5iqGjtKW1iKM7t-HXTD-166" value="" style="edgeStyle=orthogonalEdgeStyle;rounded=0;orthogonalLoop=1;jettySize=auto;html=1;" parent="1" source="v5iqGjtKW1iKM7t-HXTD-149" target="v5iqGjtKW1iKM7t-HXTD-165" edge="1">
          <mxGeometry relative="1" as="geometry" />
        </mxCell>
        <mxCell id="v5iqGjtKW1iKM7t-HXTD-149" value="set currentTime=totalTime" style="whiteSpace=wrap;html=1;strokeWidth=2;" parent="1" vertex="1">
          <mxGeometry x="572.5" y="1500" width="120" height="60" as="geometry" />
        </mxCell>
        <mxCell id="v5iqGjtKW1iKM7t-HXTD-156" value="Return" style="strokeWidth=2;html=1;shape=mxgraph.flowchart.terminator;whiteSpace=wrap;" parent="1" vertex="1">
          <mxGeometry x="582.5" y="2170" width="100" height="50" as="geometry" />
        </mxCell>
        <mxCell id="v5iqGjtKW1iKM7t-HXTD-168" value="" style="edgeStyle=orthogonalEdgeStyle;rounded=0;orthogonalLoop=1;jettySize=auto;html=1;" parent="1" source="v5iqGjtKW1iKM7t-HXTD-165" target="v5iqGjtKW1iKM7t-HXTD-167" edge="1">
          <mxGeometry relative="1" as="geometry" />
        </mxCell>
        <mxCell id="v5iqGjtKW1iKM7t-HXTD-165" value="set isRunning = True" style="whiteSpace=wrap;html=1;strokeWidth=2;" parent="1" vertex="1">
          <mxGeometry x="572.5" y="1580" width="120" height="60" as="geometry" />
        </mxCell>
        <mxCell id="v5iqGjtKW1iKM7t-HXTD-171" value="" style="edgeStyle=orthogonalEdgeStyle;rounded=0;orthogonalLoop=1;jettySize=auto;html=1;" parent="1" source="v5iqGjtKW1iKM7t-HXTD-167" target="v5iqGjtKW1iKM7t-HXTD-170" edge="1">
          <mxGeometry relative="1" as="geometry" />
        </mxCell>
        <mxCell id="v5iqGjtKW1iKM7t-HXTD-167" value="decrease currentTime by 1" style="whiteSpace=wrap;html=1;strokeWidth=2;" parent="1" vertex="1">
          <mxGeometry x="572.5" y="1660" width="120" height="60" as="geometry" />
        </mxCell>
        <mxCell id="63O3EaAYdGOA6AbYA9lr-5" value="" style="edgeStyle=orthogonalEdgeStyle;rounded=0;orthogonalLoop=1;jettySize=auto;html=1;" edge="1" parent="1" source="v5iqGjtKW1iKM7t-HXTD-170" target="63O3EaAYdGOA6AbYA9lr-4">
          <mxGeometry relative="1" as="geometry" />
        </mxCell>
        <mxCell id="v5iqGjtKW1iKM7t-HXTD-170" value="output currentTime" style="shape=parallelogram;perimeter=parallelogramPerimeter;whiteSpace=wrap;html=1;fixedSize=1;strokeWidth=2;" parent="1" vertex="1">
          <mxGeometry x="560" y="1740" width="145" height="60" as="geometry" />
        </mxCell>
        <mxCell id="v5iqGjtKW1iKM7t-HXTD-176" value="" style="edgeStyle=orthogonalEdgeStyle;rounded=0;orthogonalLoop=1;jettySize=auto;html=1;" parent="1" source="v5iqGjtKW1iKM7t-HXTD-172" target="v5iqGjtKW1iKM7t-HXTD-175" edge="1">
          <mxGeometry relative="1" as="geometry" />
        </mxCell>
        <mxCell id="v5iqGjtKW1iKM7t-HXTD-177" value="No" style="edgeLabel;html=1;align=center;verticalAlign=middle;resizable=0;points=[];" parent="v5iqGjtKW1iKM7t-HXTD-176" vertex="1" connectable="0">
          <mxGeometry x="0.0171" y="-1" relative="1" as="geometry">
            <mxPoint x="1" as="offset" />
          </mxGeometry>
        </mxCell>
        <mxCell id="v5iqGjtKW1iKM7t-HXTD-180" value="" style="edgeStyle=orthogonalEdgeStyle;rounded=0;orthogonalLoop=1;jettySize=auto;html=1;" parent="1" source="v5iqGjtKW1iKM7t-HXTD-172" target="v5iqGjtKW1iKM7t-HXTD-179" edge="1">
          <mxGeometry relative="1" as="geometry" />
        </mxCell>
        <mxCell id="v5iqGjtKW1iKM7t-HXTD-181" value="Yes" style="edgeLabel;html=1;align=center;verticalAlign=middle;resizable=0;points=[];" parent="v5iqGjtKW1iKM7t-HXTD-180" vertex="1" connectable="0">
          <mxGeometry x="-0.64" y="5" relative="1" as="geometry">
            <mxPoint as="offset" />
          </mxGeometry>
        </mxCell>
        <mxCell id="v5iqGjtKW1iKM7t-HXTD-172" value="currentTime &amp;lt;=0 ?" style="rhombus;whiteSpace=wrap;html=1;strokeWidth=2;" parent="1" vertex="1">
          <mxGeometry x="565" y="1930" width="135" height="110" as="geometry" />
        </mxCell>
        <mxCell id="63O3EaAYdGOA6AbYA9lr-11" value="" style="edgeStyle=orthogonalEdgeStyle;rounded=0;orthogonalLoop=1;jettySize=auto;html=1;" edge="1" parent="1" source="v5iqGjtKW1iKM7t-HXTD-175" target="63O3EaAYdGOA6AbYA9lr-10">
          <mxGeometry relative="1" as="geometry" />
        </mxCell>
        <mxCell id="v5iqGjtKW1iKM7t-HXTD-175" value="decrease currentTime by 1" style="whiteSpace=wrap;html=1;strokeWidth=2;" parent="1" vertex="1">
          <mxGeometry x="770" y="1960" width="120" height="55" as="geometry" />
        </mxCell>
        <mxCell id="v5iqGjtKW1iKM7t-HXTD-179" value="Output &quot;Tme is up.&quot;" style="shape=parallelogram;perimeter=parallelogramPerimeter;whiteSpace=wrap;html=1;fixedSize=1;strokeWidth=2;" parent="1" vertex="1">
          <mxGeometry x="560" y="2080" width="145" height="70" as="geometry" />
        </mxCell>
        <mxCell id="v5iqGjtKW1iKM7t-HXTD-182" style="edgeStyle=orthogonalEdgeStyle;rounded=0;orthogonalLoop=1;jettySize=auto;html=1;exitX=0.5;exitY=1;exitDx=0;exitDy=0;entryX=0.5;entryY=0;entryDx=0;entryDy=0;entryPerimeter=0;" parent="1" source="v5iqGjtKW1iKM7t-HXTD-179" target="v5iqGjtKW1iKM7t-HXTD-156" edge="1">
          <mxGeometry relative="1" as="geometry" />
        </mxCell>
        <mxCell id="63O3EaAYdGOA6AbYA9lr-6" value="" style="edgeStyle=orthogonalEdgeStyle;rounded=0;orthogonalLoop=1;jettySize=auto;html=1;" edge="1" parent="1" source="63O3EaAYdGOA6AbYA9lr-4" target="v5iqGjtKW1iKM7t-HXTD-172">
          <mxGeometry relative="1" as="geometry" />
        </mxCell>
        <mxCell id="63O3EaAYdGOA6AbYA9lr-4" value="Delay by 1" style="rounded=0;whiteSpace=wrap;html=1;" vertex="1" parent="1">
          <mxGeometry x="572.5" y="1830" width="120" height="60" as="geometry" />
        </mxCell>
        <mxCell id="63O3EaAYdGOA6AbYA9lr-13" value="" style="edgeStyle=orthogonalEdgeStyle;rounded=0;orthogonalLoop=1;jettySize=auto;html=1;" edge="1" parent="1" source="63O3EaAYdGOA6AbYA9lr-10" target="63O3EaAYdGOA6AbYA9lr-12">
          <mxGeometry relative="1" as="geometry" />
        </mxCell>
        <mxCell id="63O3EaAYdGOA6AbYA9lr-10" value="output currentTime" style="shape=parallelogram;perimeter=parallelogramPerimeter;whiteSpace=wrap;html=1;fixedSize=1;strokeWidth=2;" vertex="1" parent="1">
          <mxGeometry x="770" y="2040" width="120" height="60" as="geometry" />
        </mxCell>
        <mxCell id="63O3EaAYdGOA6AbYA9lr-14" style="edgeStyle=orthogonalEdgeStyle;rounded=0;orthogonalLoop=1;jettySize=auto;html=1;exitX=1;exitY=0.5;exitDx=0;exitDy=0;" edge="1" parent="1" source="63O3EaAYdGOA6AbYA9lr-12">
          <mxGeometry relative="1" as="geometry">
            <mxPoint x="630" y="1910" as="targetPoint" />
            <Array as="points">
              <mxPoint x="1011" y="2150" />
            </Array>
          </mxGeometry>
        </mxCell>
        <mxCell id="63O3EaAYdGOA6AbYA9lr-12" value="Delay by 1" style="whiteSpace=wrap;html=1;strokeWidth=2;" vertex="1" parent="1">
          <mxGeometry x="770" y="2120" width="120" height="60" as="geometry" />
        </mxCell>
        <mxCell id="63O3EaAYdGOA6AbYA9lr-17" style="edgeStyle=orthogonalEdgeStyle;rounded=0;orthogonalLoop=1;jettySize=auto;html=1;exitX=1;exitY=0.5;exitDx=0;exitDy=0;" edge="1" parent="1" source="63O3EaAYdGOA6AbYA9lr-15">
          <mxGeometry relative="1" as="geometry">
            <mxPoint x="500" y="770" as="targetPoint" />
            <Array as="points">
              <mxPoint x="805" y="925" />
              <mxPoint x="805" y="926" />
              <mxPoint x="810" y="926" />
            </Array>
          </mxGeometry>
        </mxCell>
        <mxCell id="63O3EaAYdGOA6AbYA9lr-15" value="input playerAnswer" style="shape=parallelogram;perimeter=parallelogramPerimeter;whiteSpace=wrap;html=1;fixedSize=1;strokeWidth=2;" vertex="1" parent="1">
          <mxGeometry x="630" y="890" width="140" height="70" as="geometry" />
        </mxCell>
        <mxCell id="63O3EaAYdGOA6AbYA9lr-18" value="" style="edgeStyle=orthogonalEdgeStyle;rounded=0;orthogonalLoop=1;jettySize=auto;html=1;" edge="1" parent="1" source="63O3EaAYdGOA6AbYA9lr-19" target="63O3EaAYdGOA6AbYA9lr-20">
          <mxGeometry relative="1" as="geometry" />
        </mxCell>
        <mxCell id="63O3EaAYdGOA6AbYA9lr-19" value="output &quot;Please Try Again.&quot;" style="shape=parallelogram;perimeter=parallelogramPerimeter;whiteSpace=wrap;html=1;fixedSize=1;strokeWidth=2;" vertex="1" parent="1">
          <mxGeometry x="1110" y="790" width="120" height="60" as="geometry" />
        </mxCell>
        <mxCell id="63O3EaAYdGOA6AbYA9lr-21" style="edgeStyle=orthogonalEdgeStyle;rounded=0;orthogonalLoop=1;jettySize=auto;html=1;exitX=1;exitY=0.5;exitDx=0;exitDy=0;" edge="1" parent="1" source="63O3EaAYdGOA6AbYA9lr-20">
          <mxGeometry relative="1" as="geometry">
            <mxPoint x="960" y="750" as="targetPoint" />
            <Array as="points">
              <mxPoint x="1260" y="910" />
              <mxPoint x="1260" y="808" />
              <mxPoint x="1251" y="808" />
            </Array>
          </mxGeometry>
        </mxCell>
        <mxCell id="63O3EaAYdGOA6AbYA9lr-20" value="input playerAnswer" style="shape=parallelogram;perimeter=parallelogramPerimeter;whiteSpace=wrap;html=1;fixedSize=1;strokeWidth=2;" vertex="1" parent="1">
          <mxGeometry x="1100" y="875" width="140" height="70" as="geometry" />
        </mxCell>
        <mxCell id="63O3EaAYdGOA6AbYA9lr-22" value="" style="edgeStyle=orthogonalEdgeStyle;rounded=0;orthogonalLoop=1;jettySize=auto;html=1;" edge="1" parent="1" source="63O3EaAYdGOA6AbYA9lr-23" target="63O3EaAYdGOA6AbYA9lr-24">
          <mxGeometry relative="1" as="geometry" />
        </mxCell>
        <mxCell id="63O3EaAYdGOA6AbYA9lr-23" value="output &quot;Please Try Again.&quot;" style="shape=parallelogram;perimeter=parallelogramPerimeter;whiteSpace=wrap;html=1;fixedSize=1;strokeWidth=2;" vertex="1" parent="1">
          <mxGeometry x="1495" y="775" width="120" height="60" as="geometry" />
        </mxCell>
        <mxCell id="63O3EaAYdGOA6AbYA9lr-25" style="edgeStyle=orthogonalEdgeStyle;rounded=0;orthogonalLoop=1;jettySize=auto;html=1;exitX=1;exitY=0.5;exitDx=0;exitDy=0;" edge="1" parent="1" source="63O3EaAYdGOA6AbYA9lr-24">
          <mxGeometry relative="1" as="geometry">
            <mxPoint x="1350" y="730" as="targetPoint" />
            <Array as="points">
              <mxPoint x="1641" y="895" />
              <mxPoint x="1641" y="730" />
            </Array>
          </mxGeometry>
        </mxCell>
        <mxCell id="63O3EaAYdGOA6AbYA9lr-24" value="input playerAnswer" style="shape=parallelogram;perimeter=parallelogramPerimeter;whiteSpace=wrap;html=1;fixedSize=1;strokeWidth=2;" vertex="1" parent="1">
          <mxGeometry x="1485" y="860" width="125" height="70" as="geometry" />
        </mxCell>
        <mxCell id="63O3EaAYdGOA6AbYA9lr-26" value="" style="edgeStyle=orthogonalEdgeStyle;rounded=0;orthogonalLoop=1;jettySize=auto;html=1;" edge="1" parent="1" source="63O3EaAYdGOA6AbYA9lr-27" target="63O3EaAYdGOA6AbYA9lr-28">
          <mxGeometry relative="1" as="geometry" />
        </mxCell>
        <mxCell id="63O3EaAYdGOA6AbYA9lr-27" value="output &quot;Please Try Again.&quot;" style="shape=parallelogram;perimeter=parallelogramPerimeter;whiteSpace=wrap;html=1;fixedSize=1;strokeWidth=2;" vertex="1" parent="1">
          <mxGeometry x="1915" y="770" width="120" height="60" as="geometry" />
        </mxCell>
        <mxCell id="63O3EaAYdGOA6AbYA9lr-32" style="edgeStyle=orthogonalEdgeStyle;rounded=0;orthogonalLoop=1;jettySize=auto;html=1;exitX=1;exitY=0.5;exitDx=0;exitDy=0;" edge="1" parent="1" source="63O3EaAYdGOA6AbYA9lr-28">
          <mxGeometry relative="1" as="geometry">
            <mxPoint x="1780" y="740" as="targetPoint" />
            <Array as="points">
              <mxPoint x="2081" y="895" />
            </Array>
          </mxGeometry>
        </mxCell>
        <mxCell id="63O3EaAYdGOA6AbYA9lr-28" value="input playerAnswer" style="shape=parallelogram;perimeter=parallelogramPerimeter;whiteSpace=wrap;html=1;fixedSize=1;strokeWidth=2;" vertex="1" parent="1">
          <mxGeometry x="1905" y="860" width="140" height="70" as="geometry" />
        </mxCell>
        <mxCell id="63O3EaAYdGOA6AbYA9lr-29" value="" style="edgeStyle=orthogonalEdgeStyle;rounded=0;orthogonalLoop=1;jettySize=auto;html=1;" edge="1" parent="1" source="63O3EaAYdGOA6AbYA9lr-30" target="63O3EaAYdGOA6AbYA9lr-31">
          <mxGeometry relative="1" as="geometry" />
        </mxCell>
        <mxCell id="63O3EaAYdGOA6AbYA9lr-30" value="output &quot;Please Try Again.&quot;" style="shape=parallelogram;perimeter=parallelogramPerimeter;whiteSpace=wrap;html=1;fixedSize=1;strokeWidth=2;" vertex="1" parent="1">
          <mxGeometry x="2310" y="780" width="120" height="60" as="geometry" />
        </mxCell>
        <mxCell id="63O3EaAYdGOA6AbYA9lr-33" style="edgeStyle=orthogonalEdgeStyle;rounded=0;orthogonalLoop=1;jettySize=auto;html=1;exitX=1;exitY=0.5;exitDx=0;exitDy=0;" edge="1" parent="1" source="63O3EaAYdGOA6AbYA9lr-31">
          <mxGeometry relative="1" as="geometry">
            <mxPoint x="2180" y="740" as="targetPoint" />
            <Array as="points">
              <mxPoint x="2481" y="900" />
            </Array>
          </mxGeometry>
        </mxCell>
        <mxCell id="63O3EaAYdGOA6AbYA9lr-31" value="input playerAnswer" style="shape=parallelogram;perimeter=parallelogramPerimeter;whiteSpace=wrap;html=1;fixedSize=1;strokeWidth=2;" vertex="1" parent="1">
          <mxGeometry x="2300" y="865" width="140" height="70" as="geometry" />
        </mxCell>
      </root>
    </mxGraphModel>
  </diagram>
</mxfile>
